<?xml version="1.0" standalone="no"?>
<!DOCTYPE svg PUBLIC "-//W3C//DTD SVG 20010904//EN"
 "http://www.w3.org/TR/2001/REC-SVG-20010904/DTD/svg10.dtd">
<svg version="1.0" xmlns="http://www.w3.org/2000/svg"
 width="135.000000pt" height="135.000000pt" viewBox="0 0 135.000000 135.000000"
 preserveAspectRatio="xMidYMid meet">

<g transform="translate(0.000000,135.000000) scale(0.100000,-0.100000)"
fill="#000000" stroke="none">
<path d="M316 1213 c-3 -4 -4 -39 0 -79 l7 -71 -40 -42 c-23 -22 -46 -54 -53
-71 -12 -29 -14 -30 -81 -30 -67 0 -69 -1 -69 -25 0 -30 66 -101 98 -107 20
-3 18 -8 -33 -91 -62 -98 -81 -156 -71 -209 8 -44 52 -94 92 -104 16 -4 35
-16 42 -26 19 -26 73 -24 99 4 12 13 39 55 61 93 39 69 40 71 142 123 57 28
104 52 105 52 2 0 1 -24 -2 -52 -7 -90 -30 -137 -113 -223 -88 -92 -106 -122
-115 -191 -5 -38 -3 -53 8 -62 11 -9 111 -12 413 -10 l399 3 -1 150 c-1 231
-40 417 -124 591 -87 180 -181 253 -341 262 l-90 5 -30 58 c-16 33 -35 59 -41
59 -7 0 -31 -18 -53 -40 l-42 -41 -70 41 c-71 41 -84 45 -97 33z m90 -75 l36
-21 -37 -19 c-20 -11 -38 -18 -40 -16 -8 10 -12 78 -5 78 5 0 25 -10 46 -22z
m194 -26 l25 -47 95 -6 c118 -7 171 -29 235 -101 56 -62 127 -204 159 -318 29
-105 55 -284 58 -410 l2 -95 -377 -3 c-298 -2 -377 0 -377 10 0 50 28 96 105
179 98 105 125 162 125 264 0 54 5 71 32 115 23 38 32 64 32 98 1 63 -25 66
-36 4 -15 -87 -54 -125 -198 -194 -88 -43 -111 -65 -160 -155 -26 -50 -43 -69
-60 -71 l-23 -4 23 37 c17 27 20 39 11 48 -8 8 -18 4 -39 -16 -36 -35 -57 -34
-94 3 -28 28 -30 36 -26 80 4 38 18 70 61 138 31 49 59 96 63 105 3 9 11 17
16 17 18 0 68 59 68 80 0 13 7 20 20 20 14 0 20 -7 20 -23 0 -12 9 -29 20 -37
11 -8 20 -20 20 -27 0 -9 18 -13 60 -13 56 0 62 2 100 40 22 21 40 44 40 50 0
6 33 10 85 10 69 0 85 -3 85 -15 0 -8 7 -15 15 -15 8 0 15 7 15 15 0 8 -7 15
-15 15 -8 0 -15 7 -15 15 0 12 -38 15 -256 17 l-255 3 30 42 c23 32 52 53 113
84 46 23 100 57 121 75 20 19 40 34 45 34 4 0 18 -21 32 -48z m-310 -232 c0
-5 -5 -10 -11 -10 -5 0 -7 5 -4 10 3 6 8 10 11 10 2 0 4 -4 4 -10z m260 0 c0
-5 -4 -10 -10 -10 -5 0 -10 5 -10 10 0 6 5 10 10 10 6 0 10 -4 10 -10z"/>
<path d="M146 551 c-16 -18 -22 -61 -8 -61 18 0 52 33 52 49 0 26 -25 33 -44
12z"/>
</g>
</svg>
